# xmcd
# 
# Track frame offsets:
#     187
#     15205
#     34170
#     57570
#     71537
#     93202
#     106647
#     122220
#     150010
# 
# Disc length: 2305
# 
# Revision: 0
# Processed by: cddbd v1.5.2PL0 Copyright (c) Steve Scherf et al.
# Submitted via: BonkEnc v1.0.8
# 
DISCID=5e08ff09
DTITLE=Bobby Timmons - Got To Get It!
DYEAR=1967
DGENRE=Jazz
TTITLE0=If You Ain't Got It (I Got To Get It Some Where)
TTITLE1=Up, Up And Away
TTITLE2=Travelin' Light
TTITLE3=Come Sunday
TTITLE4=One Down
TTITLE5=I'm So Tired
TTITLE6=Here's That Rainy Day
TTITLE7=Straight, No Chaser
TTITLE8=Booker's Bossa
EXTD=YEAR: 1967
EXTT0=
EXTT1=
EXTT2=
EXTT3=
EXTT4=
EXTT5=
EXTT6=
EXTT7=
EXTT8=
PLAYORDER=
